<svg width="16" height="16" viewBox="0 0 16 16" fill="none" xmlns="http://www.w3.org/2000/svg">
<mask id="mask0_0_2909" style="mask-type:alpha" maskUnits="userSpaceOnUse" x="0" y="0" width="16" height="16">
<rect width="16" height="16" fill="white"/>
</mask>
<g mask="url(#mask0_0_2909)">
<path d="M13.4 6.07596C13.4 3.03798 11 0.607605 7.99998 0.607605C4.99998 0.607605 2.59998 3.03798 2.59998 6.07596C2.59998 7.18988 2.89998 8.20254 3.49998 9.01267C3.59998 9.2152 7.99998 14.9874 7.99998 14.9874C7.99998 14.9874 12.4 9.2152 12.5 9.01267C13 8.20254 13.4 7.18988 13.4 6.07596Z" stroke="#78829D" stroke-width="0.833333"/>
<path fill-rule="evenodd" clip-rule="evenodd" d="M7.99993 7.69621C7.06104 7.69621 6.29993 6.92546 6.29993 5.97469C6.29993 5.02392 7.06104 4.25317 7.99993 4.25317C8.93881 4.25317 9.69993 5.02392 9.69993 5.97469C9.69993 6.92546 8.93881 7.69621 7.99993 7.69621Z" stroke="#78829D" stroke-width="0.833333"/>
</g>
</svg>
