<svg width="17" height="17" viewBox="0 0 17 17" fill="none" xmlns="http://www.w3.org/2000/svg">
<path fill-rule="evenodd" clip-rule="evenodd" d="M12.3725 3.54059L12.4305 3.54128C13.5616 3.54128 14.9368 4.29247 15.4009 6.39939L16.0164 11.1632C16.2372 12.7006 15.961 13.9339 15.1942 14.8185C14.4313 15.6984 13.2238 16.1641 11.7019 16.1641H5.19007C3.51842 16.1641 2.3538 15.7545 1.62913 14.9129C0.901344 14.0689 0.657968 12.8028 0.906024 11.1507L1.51134 6.45009C1.90917 4.29481 3.36397 3.54128 4.49036 3.54128C4.5876 2.64459 4.99193 1.79155 5.63337 1.15214C6.37052 0.419668 7.38693 0 8.42517 0H8.44155C10.4805 0 12.1649 1.5536 12.3725 3.54059ZM4.49036 4.71135C4.14636 4.71135 2.99656 4.8502 2.6666 6.63184L2.0644 11.3122C1.86861 12.625 2.01994 13.5751 2.51527 14.15C3.00436 14.7179 3.87958 14.994 5.19007 14.994H11.7019C12.5194 14.994 13.6357 14.831 14.3096 14.0525C14.8448 13.4355 15.0289 12.5165 14.8572 11.3207L14.2496 6.59986C13.9906 5.4368 13.3073 4.71135 12.4305 4.71135H4.49036ZM11.3196 7.46813C11.3196 7.79108 11.0754 8.05317 10.7525 8.05317H10.7166C10.3936 8.05317 10.1315 7.79108 10.1315 7.46813C10.1315 7.14519 10.3936 6.8831 10.7166 6.8831C11.0395 6.8831 11.3196 7.14519 11.3196 7.46813ZM6.77178 7.46813C6.77178 7.79108 6.52684 8.05317 6.2039 8.05317H6.1688C5.84586 8.05317 5.58376 7.79108 5.58376 7.46813C5.58376 7.14519 5.84586 6.8831 6.1688 6.8831C6.49174 6.8831 6.77178 7.14519 6.77178 7.46813ZM8.42751 1.17008C7.69349 1.17008 6.97818 1.46572 6.45944 1.98133C6.03689 2.40199 5.76053 2.95499 5.67113 3.54091L11.1933 3.54113C10.9929 2.20082 9.83387 1.17008 8.43921 1.17008H8.42751Z" fill="#B1B8C7"/>
</svg>
