<svg width="17" height="17" viewBox="0 0 17 17" fill="none" xmlns="http://www.w3.org/2000/svg">
<path fill-rule="evenodd" clip-rule="evenodd" d="M11.3299 12.5286V14.8699C11.3299 15.0655 11.4867 15.2223 11.6876 15.2269H13.1383C14.2816 15.2269 15.2109 14.3089 15.2109 13.1809V6.5407C15.2056 6.15252 15.0206 5.78717 14.7032 5.54436L9.68502 1.54227C9.01141 1.00871 8.06911 1.00871 7.39322 1.54379L2.40925 5.54284C2.07967 5.79326 1.89471 6.15861 1.89091 6.55364V13.1809C1.89091 14.3089 2.82026 15.2269 3.9635 15.2269H5.42794C5.63421 15.2269 5.80167 15.0632 5.80167 14.8623C5.80167 14.8181 5.80699 14.774 5.81613 14.7321V12.5286C5.81613 11.6236 6.55748 10.8838 7.46705 10.8777H9.66752C10.5839 10.8777 11.3299 11.6183 11.3299 12.5286ZM11.6739 16.3686C10.8351 16.3488 10.1881 15.6904 10.1881 14.8699V12.5286C10.1881 12.2478 9.95447 12.0194 9.66752 12.0194H7.47086C7.18999 12.0209 6.95784 12.25 6.95784 12.5286V14.8623C6.95784 14.9194 6.95023 14.9742 6.93425 15.0259C6.85205 15.7795 6.20812 16.3686 5.42794 16.3686H3.9635C2.1908 16.3686 0.749191 14.9384 0.749191 13.1809V6.54831C0.756803 5.79174 1.10541 5.0991 1.70747 4.64317L6.68155 0.650969C7.77683 -0.216736 9.30293 -0.216736 10.3959 0.649446L15.4058 4.64545C15.9941 5.09377 16.3428 5.78489 16.3526 6.53233V13.1809C16.3526 14.9384 14.911 16.3686 13.1383 16.3686H11.6739Z" fill="#B1B8C7"/>
</svg>
